<?xml version="1.0" encoding="UTF-8"?>
<svg id="_레이어_2" data-name="레이어 2" xmlns="http://www.w3.org/2000/svg" viewBox="0 0 65 9.06">
  <defs>
    <style>
      .cls-1 {
        fill: #fff;
      }
    </style>
  </defs>
  <g id="_레이어_1-2" data-name="레이어 1">
    <g>
      <path class="cls-1" d="m13.5,0C10.84,0,8.68,2.03,8.68,4.53s2.16,4.52,4.82,4.52c.21,0,.42-.01.64-.04h.11v-1.27l-.14.02c-.2.03-.41.05-.61.05-1.93,0-3.51-1.47-3.51-3.29s1.57-3.29,3.51-3.29c.2,0,.4.02.61.05l.14.02V.06h-.11c-.22-.04-.44-.05-.64-.05Z"/>
      <path class="cls-1" d="m3.54,4.53c0,1.66-1.19,3.01-2.66,3.02h-.88s0,1.51,0,1.51h.86s.03,0,.03,0c2.2,0,3.98-2.03,3.98-4.52,0-1.63,1.21-3.01,2.65-3.02h.83V0h-.84c-2.19.01-3.97,2.04-3.97,4.52Z"/>
      <path class="cls-1" d="m21.14,2.38C21.14,1.14,20.02.1,18.59,0h-2.44v9.05h1.3v-4.29h.93l2.05,4.29h1.4l-2.17-4.55c.92-.41,1.49-1.22,1.49-2.12Zm-2.55,1.25h-1.15V1.14h1.15c.71.09,1.25.62,1.25,1.25s-.53,1.16-1.24,1.25Z"/>
      <polygon class="cls-1" points="27.99 1.1 28 .02 23.13 0 23.13 9.05 28 9.05 28 7.97 24.52 7.97 24.52 4.76 27.61 4.76 27.61 3.63 24.52 3.63 24.52 1.09 27.99 1.1"/>
      <polygon class="cls-1" points="34.55 1.1 34.55 .02 29.68 0 29.68 9.05 34.55 9.05 34.55 7.97 31.08 7.97 31.08 4.76 34.17 4.76 34.17 3.63 31.08 3.63 31.08 1.09 34.55 1.1"/>
      <path class="cls-1" d="m41.42,7.4c-.53-.45-1.3-1.28-2.22-2.45-1.45-1.84-1.68-3.79-1.69-4.79V0h0S36.8,0,36.8,0h-.69s0,0,0,0v.17s0,8.88,0,8.88h1.39v-4.12c.17.28.37.56.59.83,1.66,2.1,2.93,3.05,3.33,3.29h1.39V0h-1.39v7.39Z"/>
      <polygon class="cls-1" points="49.67 .06 47.69 3.39 45.72 .06 44.37 .06 47.02 4.53 44.37 8.99 45.72 8.99 47.69 5.66 49.67 8.99 51.02 8.99 48.37 4.53 51.02 .06 49.67 .06"/>
      <polygon class="cls-1" points="55.47 3.38 53.44 0 52.05 0 54.77 4.53 54.77 4.53 54.77 9.05 56.17 9.05 56.17 4.53 56.17 4.53 58.89 0 57.5 0 55.47 3.38"/>
      <polygon class="cls-1" points="60.14 0 60.14 1.15 63.46 1.15 59.95 7.91 59.95 7.91 59.95 7.91 59.95 7.91 59.95 7.97 59.95 7.97 59.95 9.05 65 9.05 65 7.91 61.5 7.91 65 1.15 65 1.15 65 .51 65 0 60.14 0"/>
    </g>
  </g>
</svg>