<svg xmlns='http://www.w3.org/2000/svg' width='189' height='122' viewBox='0 0 189 122'>
  <path
    id="패스_45"
    data-name="패스 45"
    d="M134,122V67h55v55Zm2-2h51V69H136Zm-69,2V67h55v55Zm2-2h51V69H69ZM0,122V67H55v55Zm2-2H53V69H2Zm155.393-18.163,9.428-6.558L157.37,88.3l1.187-1.609,11.7,8.631-11.72,8.152Zm-137.8-6.511,11.7-8.631L32.479,88.3l-9.451,6.974,9.428,6.558-1.142,1.642Zm67.1-5.233L88.3,88.907l6.974,9.451,6.558-9.428,1.642,1.142-8.152,11.72ZM67,55V0h55V55Zm2-2h51V2H69ZM85.7,32.48l8.631-11.7L102.479,32.5l-1.642,1.142-6.558-9.428L87.3,33.668Z"
    fill="#fff"
  />
</svg>
