<svg
  xmlns="http://www.w3.org/2000/svg"
  width="135.748"
  height="179.361"
  viewBox="0 0 135.748 179.361"
>
  <path
    id="패스_46"
    data-name="패스 46"
    d="M38.748,130.861v-54a48.5,48.5,0,0,1,97,0v54a48.5,48.5,0,1,1-97,0Zm30.4-96.846a46.462,46.462,0,0,0-28.4,42.846v54a46.5,46.5,0,1,0,93,0v-54a46.526,46.526,0,0,0-64.6-42.846Zm17.6,41.346v-21h2v21Zm-27-10.5,8-8,8,8-8,8ZM0,48.855l1.87-.707,3.091,8.167c.332-1.136.9-2.91,1.786-5.15a80.406,80.406,0,0,1,8.076-15.283,78.045,78.045,0,0,1,16.45-17.742A80.1,80.1,0,0,1,56.925,4.759L49.408,1.867,50.126,0,61.154,4.243l-4.79,11.139-1.838-.789L58,6.52A78.231,78.231,0,0,0,32.509,19.712,76.063,76.063,0,0,0,16.481,37,78.452,78.452,0,0,0,8.608,51.9c-.869,2.209-1.426,3.954-1.743,5.037l7.529-3.189.779,1.841L4.293,60.2Z"
    fill="#fff"
  />
</svg>